<svg width="35" height="38" viewBox="0 0 35 38" fill="none" xmlns="http://www.w3.org/2000/svg">
<path d="M21.1785 30.5739C21.171 30.6211 21.1647 30.6616 21.1597 30.6947C21.1226 30.7792 21.06 30.8726 20.9853 30.9434C20.9545 30.9726 20.9297 30.9903 20.9138 31H13.4233H13.1359C13.12 30.9903 13.0951 30.9726 13.0643 30.9434C12.9863 30.8695 12.9216 30.7709 12.8852 30.6835C12.8786 30.6476 12.8699 30.6008 12.8591 30.544C12.8323 30.4032 12.7926 30.2004 12.7403 29.9489C12.6358 29.4465 12.4805 28.7469 12.2768 27.9564C11.8746 26.3954 11.2648 24.403 10.4526 22.8819L10.4277 22.8354L10.3981 22.7917C8.91967 20.6112 8.59461 17.59 9.51356 14.8471L9.51911 14.8305L9.52407 14.8138C10.2758 12.2796 12.0647 10.4193 14.2571 9.6494C15.2982 9.28383 16.1374 9 16.9411 9C19.3924 9 21.7842 10.365 23.4784 12.7886C25.0039 15.2102 25.4277 18.0595 24.5422 20.547L24.5163 20.6199L24.5019 20.6958C24.3654 21.4146 24.0953 22.0058 23.6145 22.8506C22.7016 24.3927 22.0891 26.4034 21.707 27.9688C21.5127 28.7644 21.3726 29.4684 21.2809 29.9742C21.235 30.2274 21.2011 30.4317 21.1785 30.5739Z" fill="#FE9235" stroke="#FE9235" stroke-width="2"/>
<path d="M17 20V30.5145" stroke="white" stroke-miterlimit="10"/>
<path d="M17 0V5.25724" stroke="#FE9235" stroke-width="2" stroke-miterlimit="10"/>
<path d="M5.34729 17H0" stroke="#FE9235" stroke-width="2" stroke-miterlimit="10"/>
<path d="M22 34L12 34" stroke="#FE9235" stroke-width="2" stroke-miterlimit="10"/>
<path d="M21 37L13 37" stroke="#FE9235" stroke-width="2" stroke-miterlimit="10"/>
<path d="M34.3473 17H29" stroke="#FE9235" stroke-width="2" stroke-miterlimit="10"/>
<path d="M28.7431 5L25 8.50483" stroke="#FE9235" stroke-width="2" stroke-miterlimit="10"/>
<path d="M8.7431 8.50483L5 5" stroke="#FE9235" stroke-width="2" stroke-miterlimit="10"/>
<path d="M12 19.1528H21.3578" stroke="white" stroke-width="2" stroke-miterlimit="10"/>
</svg>
