<svg width="33" height="31" viewBox="0 0 33 31" fill="none" xmlns="http://www.w3.org/2000/svg">
<path d="M16.1533 30.25C25.0745 30.25 32.3066 23.4783 32.3066 15.125C32.3066 6.77169 25.0745 0 16.1533 0C7.23207 0 0 6.77169 0 15.125C0 23.4783 7.23207 30.25 16.1533 30.25Z" fill="#FE9235"/>
<path d="M13.599 18.0518V17.293C13.599 16.6367 13.7391 16.0659 14.0194 15.5806C14.2997 15.0952 14.8124 14.5791 15.5575 14.0322C16.2753 13.5195 16.7469 13.1025 16.9725 12.7812C17.205 12.46 17.3212 12.1011 17.3212 11.7046C17.3212 11.2603 17.1571 10.9219 16.829 10.6895C16.5009 10.457 16.0428 10.3408 15.455 10.3408C14.4296 10.3408 13.2606 10.6758 11.9481 11.3457L10.8304 9.1001C12.3549 8.24561 13.9716 7.81836 15.6805 7.81836C17.0887 7.81836 18.2064 8.15674 19.0336 8.8335C19.8676 9.51025 20.2845 10.4126 20.2845 11.5405C20.2845 12.2925 20.1136 12.9419 19.7719 13.4888C19.4301 14.0356 18.7806 14.6509 17.8236 15.3345C17.1674 15.8198 16.7504 16.189 16.5726 16.4419C16.4017 16.6948 16.3163 17.0264 16.3163 17.4365V18.0518H13.599ZM13.2709 21.5586C13.2709 20.9844 13.4247 20.5503 13.7323 20.2563C14.0399 19.9624 14.4877 19.8154 15.0756 19.8154C15.6429 19.8154 16.0804 19.9658 16.3881 20.2666C16.7025 20.5674 16.8597 20.998 16.8597 21.5586C16.8597 22.0986 16.7025 22.5259 16.3881 22.8403C16.0736 23.1479 15.6361 23.3018 15.0756 23.3018C14.5013 23.3018 14.057 23.1514 13.7426 22.8506C13.4281 22.543 13.2709 22.1123 13.2709 21.5586Z" fill="white"/>
</svg>
